<svg width="180" height="80" viewBox="0 0 180 80" fill="none" xmlns="http://www.w3.org/2000/svg">
<path d="M108.075 52.975C104.565 52.975 101.423 52.4442 98.65 51.3825C95.8983 50.2992 93.5583 48.6633 91.63 46.475C89.7233 44.2867 88.2717 41.535 87.275 38.22L95.92 36.075C96.7433 38.5667 98.1625 40.625 100.177 42.25C102.192 43.875 104.63 44.6767 107.49 44.655C109.505 44.6117 111.423 44.2108 113.243 43.4525C115.084 42.6942 116.568 41.535 117.695 39.975C118.518 38.935 119.147 37.7975 119.58 36.5625C120.035 35.3058 120.36 34.0167 120.555 32.695H104.175V24.44H120.62C120.23 22.0567 119.472 19.9658 118.345 18.1675C117.218 16.3692 115.745 14.9717 113.925 13.975C112.105 12.9783 109.96 12.5017 107.49 12.545C104.565 12.5667 102.073 13.39 100.015 15.015C97.9783 16.64 96.57 18.8067 95.79 21.515L86.95 20.28C88.12 15.1667 90.5358 11.2125 94.1975 8.4175C97.8592 5.6225 102.485 4.225 108.075 4.225C112.603 4.225 116.514 5.25416 119.808 7.3125C123.123 9.34916 125.679 12.1983 127.478 15.86C129.276 19.5217 130.175 23.7683 130.175 28.6C130.175 33.15 129.287 37.2667 127.51 40.95C125.755 44.6333 123.22 47.5583 119.905 49.725C116.612 51.8917 112.668 52.975 108.075 52.975Z" fill="#FB6569"/>
<path d="M132.13 52V44.655C133.127 44.72 133.972 44.6333 134.665 44.395C135.358 44.1567 135.943 43.7233 136.42 43.095C136.918 42.445 137.352 41.5567 137.72 40.43C138.088 39.2817 138.435 37.8517 138.76 36.14C139.28 33.4317 139.713 30.5825 140.06 27.5925C140.428 24.5808 140.732 21.6342 140.97 18.7525C141.208 15.8708 141.393 13.2492 141.523 10.8875C141.653 8.50416 141.75 6.60833 141.815 5.2H173.73V52H164.89V13.455H149.94C149.853 14.6683 149.734 16.25 149.583 18.2C149.453 20.15 149.268 22.3058 149.03 24.6675C148.792 27.0292 148.499 29.4775 148.153 32.0125C147.806 34.5475 147.383 37.0067 146.885 39.39C146.43 41.7083 145.878 43.7667 145.228 45.565C144.578 47.3417 143.711 48.8042 142.628 49.9525C141.566 51.0792 140.19 51.8267 138.5 52.195C136.81 52.5633 134.687 52.4983 132.13 52Z" fill="#FB6569"/>
<path d="M105 70C105 75.5228 100.523 80 95 80C89.4772 80 85 75.5228 85 70C85 64.4772 89.4772 60 95 60C100.523 60 105 64.4772 105 70Z" fill="#0080F8"/>
<path d="M130 70C130 75.5228 125.523 80 120 80C114.477 80 110 75.5228 110 70C110 64.4772 114.477 60 120 60C125.523 60 130 64.4772 130 70Z" fill="#FB6569" fill-opacity="0.8"/>
<path d="M155 70C155 75.5228 150.523 80 145 80C139.477 80 135 75.5228 135 70C135 64.4772 139.477 60 145 60C150.523 60 155 64.4772 155 70Z" fill="#0080F8" fill-opacity="0.7"/>
<path d="M180 70C180 75.5228 175.523 80 170 80C164.477 80 160 75.5228 160 70C160 64.4772 164.477 60 170 60C175.523 60 180 64.4772 180 70Z" fill="#FB6569" fill-opacity="0.6"/>
<path fill-rule="evenodd" clip-rule="evenodd" d="M40 0.000106812C17.9086 0.000106548 2.63437e-07 17.9087 0 40.0001L28 40L28.0653 38.1599L28.2695 36.2965L28.6347 34.3822L29.1632 32.5L29.5 31.552L29.8935 30.5939L30.3284 29.6701L30.8334 28.7289L31.3504 27.878L31.918 27.0472L32.5 26.2866L33.1749 25.5L33.7751 24.8732L34.4289 24.2576L35.0864 23.7003L35.7738 23.1765L36.5 22.6815L37.2291 22.2391L38 21.8253L38.8232 21.4396L39.6368 21.1107L40.4573 20.8279L41.3403 20.5748L42.2695 20.3619L43.1912 20.2018L44.1214 20.0889L45.0459 20.0226L46 20L65 0.00010711L40 0.000106812Z" fill="#0080F8"/>
<path fill-rule="evenodd" clip-rule="evenodd" d="M0 40.0001C-2.63437e-07 62.0914 17.9086 80 40 80H65L46 60L45.2465 59.9881L44.5 59.9481L43.75 59.8785L43 59.7781L42.2205 59.6398L41.4224 59.4604L41.03 59.3575L40.6562 59.2502L39.8881 59L39.1329 58.7129L38.3945 58.39L37.6606 58.0247L36.9539 57.6275L36.2706 57.1975L35.5862 56.717L34.9481 56.2193L34.312 55.6703L33.9118 55.2948L33.5276 54.9102L33.1435 54.5L32.7739 54.0789L32.4339 53.6661L32.1042 53.2403L31.7586 52.7639L31.4122 52.2518L30.8464 51.3274L30.3392 50.3838L29.8949 49.4401L29.5 48.4768L29.1467 47.4759L28.8391 46.4466L28.5802 45.4001L28.373 44.3583L28.2082 43.2757L28.093 42.2011L28.0232 41.1051L28 40L0 40.0001Z" fill="#FB6569"/>
<path d="M40 60C28.9543 60 20 51.0457 20 40C20 28.9543 28.9543 20 40 20H65H46L45.0459 20.0226L44.1214 20.0889L43.1912 20.2018L42.2695 20.3619L41.3403 20.5748L40.4573 20.8279L39.6368 21.1107L38.8232 21.4396L38 21.8253L37.2291 22.2391L36.5 22.6815L35.7738 23.1765L35.0864 23.7003L34.4289 24.2576L33.7751 24.8732L33.1749 25.5L32.5 26.2866L31.918 27.0472L31.3504 27.878L30.8334 28.7289L30.3284 29.6701L29.8935 30.5939L29.5 31.552L29.1632 32.5L28.6347 34.3822L28.2695 36.2965L28.0653 38.1599L28 40L28.0232 41.1051L28.093 42.2011L28.2082 43.2757L28.373 44.3583L28.5802 45.4001L28.8391 46.4466L29.1467 47.4759L29.5 48.4768L29.8949 49.4401L30.3392 50.3838L30.8464 51.3274L31.4122 52.2518L31.7586 52.7639L32.1042 53.2403L32.4339 53.6661L32.7739 54.0789L33.1435 54.5L33.5276 54.9102L33.9118 55.2948L34.312 55.6703L34.9481 56.2193L35.5862 56.717L36.2706 57.1975L36.9539 57.6275L37.6606 58.0247L38.3945 58.39L39.1329 58.7129L39.8881 59L40.6562 59.2502L41.03 59.3575L41.4224 59.4604L42.2205 59.6398L43 59.7781L43.75 59.8785L44.5 59.9481L45.2465 59.9881L46 60H65H40Z" fill="white"/>
<path fill-rule="evenodd" clip-rule="evenodd" d="M20 40C20 51.0457 28.9543 60 40 60H46L45.2465 59.9881L44.5 59.9481L43.75 59.8785L43 59.7781L42.2205 59.6398L41.4224 59.4604L41.03 59.3575L40.6562 59.2502L39.8881 59L39.1329 58.7129L38.3945 58.39L37.6606 58.0247L36.9539 57.6275L36.2706 57.1975L35.5862 56.717L34.9481 56.2193L34.312 55.6703L33.9118 55.2948L33.5276 54.9102L33.1435 54.5L32.7739 54.0789L32.4339 53.6661L32.1042 53.2403L31.7586 52.7639L31.4122 52.2518L30.8464 51.3274L30.3392 50.3838L29.8949 49.4401L29.5 48.4768L29.1467 47.4759L28.8391 46.4466L28.5802 45.4001L28.373 44.3583L28.2082 43.2757L28.093 42.2011L28.0232 41.1051L28 40H20Z" fill="#C85255"/>
<path fill-rule="evenodd" clip-rule="evenodd" d="M40 20C28.9543 20 20 28.9543 20 40H28L28.0653 38.1599L28.2695 36.2965L28.6347 34.3822L29.1632 32.5L29.5 31.552L29.8935 30.5939L30.3284 29.6701L30.8334 28.7289L31.3504 27.878L31.918 27.0472L32.5 26.2866L33.1749 25.5L33.7751 24.8732L34.4289 24.2576L35.0864 23.7003L35.7738 23.1765L36.5 22.6815L37.2291 22.2391L38 21.8253L38.8232 21.4396L39.6368 21.1107L40.4573 20.8279L41.3403 20.5748L42.2695 20.3619L43.1912 20.2018L44.1214 20.0889L45.0459 20.0226L46 20H40Z" fill="#0066C5"/>
<path d="M57 0L65 0.00010711L65 20H57V0Z" fill="#ADADAD"/>
<path d="M57 60H65L65 80H57V60Z" fill="#ADADAD"/>
<path d="M46 0H57V20H46V0Z" fill="#D9D9D9"/>
<path d="M46 60H57V80H46V60Z" fill="#D9D9D9"/>
<path d="M45.9401 60C34.8944 60 28 51.0457 28 40C28 28.9543 34.9543 20 46 20L45.0459 20.0226L44.1214 20.0889L43.1912 20.2018L42.2695 20.3619L41.3403 20.5748L40.4573 20.8279L39.6368 21.1107L38.8232 21.4396L38 21.8253L37.2291 22.2391L36.5 22.6815L35.7738 23.1765L35.0864 23.7003L34.4289 24.2576L33.7751 24.8732L33.1749 25.5L32.5 26.2866L31.918 27.0472L31.3504 27.878L30.8334 28.7289L30.3284 29.6701L29.8935 30.5939L29.5 31.552L29.1632 32.5L28.6347 34.3822L28.2695 36.2965L28.0653 38.1599L28 40L28.0232 41.1051L28.093 42.2011L28.2082 43.2757L28.373 44.3583L28.5802 45.4001L28.8391 46.4466L29.1467 47.4759L29.5 48.4768L29.8949 49.4401L30.3392 50.3838L30.8464 51.3274L31.4122 52.2518L31.7586 52.7639L32.1042 53.2403L32.4339 53.6661L32.7739 54.0789L33.1435 54.5L33.5276 54.9102L33.9118 55.2948L34.312 55.6703L34.9481 56.2193L35.5862 56.717L36.2706 57.1975L36.9539 57.6275L37.6606 58.0247L38.3945 58.39L39.1329 58.7129L39.8881 59L40.6562 59.2502L41.03 59.3575L41.4224 59.4604L42.2205 59.6398L43 59.7781L43.75 59.8785L44.5 59.9481L45.2465 59.9881L46 60H65H45.9401Z" fill="white"/>
<path d="M51 68H53V74H51V68Z" fill="white"/>
<path d="M55 70V72H49V70H55Z" fill="white"/>
<path d="M55 9V11L49 11V9L55 9Z" fill="white"/>
<path d="M94 67H96V73H94V67Z" fill="white"/>
<path d="M144 67H146V73H144V67Z" fill="white"/>
<path d="M98 69V71H92V69H98Z" fill="white"/>
<path d="M148 69V71H142V69H148Z" fill="white"/>
<path d="M123 69V71H117V69H123Z" fill="white"/>
<path d="M173 69V71H167V69H173Z" fill="white"/>
</svg>
