<svg width="190" height="171" viewBox="0 0 190 171" fill="none" xmlns="http://www.w3.org/2000/svg">
<path d="M44.2854 92.8571C37.549 92.8571 31.5195 91.846 26.197 89.8238C20.916 87.7603 16.4251 84.6444 12.7242 80.4762C9.06498 76.3079 6.27896 71.0666 4.36616 64.7524L20.9576 60.6667C22.5377 65.4127 25.2614 69.3333 29.1285 72.4286C32.9957 75.5238 37.6737 77.0508 43.1626 77.0095C47.0298 76.927 50.7099 76.1635 54.2028 74.719C57.7373 73.2746 60.5857 71.0666 62.748 68.0952C64.3281 66.1143 65.534 63.9476 66.3657 61.5952C67.2389 59.2016 67.8626 56.746 68.2369 54.2286H36.8005V38.5048H68.3616C67.6131 33.9651 66.1577 29.9825 63.9955 26.5571C61.8332 23.1317 59.0056 20.4698 55.5126 18.5714C52.0197 16.673 47.903 15.7651 43.1626 15.8476C37.549 15.8889 32.767 17.4571 28.8167 20.5524C24.9079 23.6476 22.2051 27.7746 20.7081 32.9333L3.74242 30.5809C5.98788 20.8413 10.6243 13.3095 17.6518 7.98571C24.6792 2.6619 33.5571 0 44.2854 0C52.9761 0 60.4817 1.96031 66.8023 5.88095C73.1644 9.76031 78.0711 15.1873 81.5225 22.1619C84.9738 29.1365 86.6995 37.2254 86.6995 46.4286C86.6995 55.0952 84.9946 62.9365 81.5849 69.9524C78.2167 76.9682 73.3515 82.5397 66.9894 86.6666C60.6689 90.7936 53.1008 92.8571 44.2854 92.8571Z" fill="#FB6569"/>
<path d="M90.4517 91V77.0095C92.3645 77.1333 93.9862 76.9682 95.3168 76.5143C96.6475 76.0603 97.7702 75.2349 98.685 74.0381C99.6414 72.8 100.473 71.1079 101.18 68.9619C101.887 66.7746 102.552 64.0508 103.176 60.7905C104.174 55.6317 105.006 50.2048 105.671 44.5095C106.378 38.773 106.96 33.1603 107.417 27.6714C107.875 22.1825 108.228 17.1889 108.478 12.6905C108.727 8.15079 108.914 4.53968 109.039 1.85714H170.29V91H153.324V17.5809H124.632C124.466 19.8921 124.237 22.9048 123.946 26.619C123.697 30.3333 123.343 34.4397 122.886 38.9381C122.429 43.4365 121.867 48.1 121.202 52.9286C120.537 57.7571 119.726 62.4413 118.769 66.9809C117.896 71.3968 116.836 75.3174 115.588 78.7428C114.341 82.127 112.678 84.9127 110.598 87.1C108.561 89.246 105.92 90.6698 102.677 91.3714C99.4335 92.073 95.3584 91.9492 90.4517 91Z" fill="#FB6569"/>
<path d="M42.2222 148.143C42.2222 159.715 32.7705 169.095 21.1111 169.095C9.45177 169.095 0 159.715 0 148.143C0 136.571 9.45177 127.19 21.1111 127.19C32.7705 127.19 42.2222 136.571 42.2222 148.143Z" fill="#0080F8"/>
<path d="M92.1212 150.048C92.1212 161.619 82.6694 171 71.0101 171C59.3508 171 49.899 161.619 49.899 150.048C49.899 138.476 59.3508 129.095 71.0101 129.095C82.6694 129.095 92.1212 138.476 92.1212 150.048Z" fill="#FB6569"/>
<path d="M142.02 150.048C142.02 161.619 132.568 171 120.909 171C109.25 171 99.798 161.619 99.798 150.048C99.798 138.476 109.25 129.095 120.909 129.095C132.568 129.095 142.02 138.476 142.02 150.048Z" fill="#0080F8"/>
<path d="M190 150.048C190 161.619 180.548 171 168.889 171C157.23 171 147.778 161.619 147.778 150.048C147.778 138.476 157.23 129.095 168.889 129.095C180.548 129.095 190 138.476 190 150.048Z" fill="#FB6569"/>
</svg>
